<?xml version="1.0" encoding="UTF-8"?>
<svg width="147px" height="17px" viewBox="0 0 147 17" version="1.1" xmlns="http://www.w3.org/2000/svg" xmlns:xlink="http://www.w3.org/1999/xlink">
    <!-- Generator: Sketch 53.2 (72643) - https://sketchapp.com -->
    <title>Vehiculum_Logo__uebergang_quer_black (1)</title>
    <desc>Created with Sketch.</desc>
    <g id="Page-1" stroke="none" stroke-width="1" fill="none" fill-rule="evenodd">
        <g id="homepage_dropdown" transform="translate(-100.000000, -23.000000)" fill="#1D1D1B" fill-rule="nonzero">
            <g id="top_bar" transform="translate(-6.000000, 0.000000)">
                <g id="Vehiculum_Logo__uebergang_quer_black-(1)" transform="translate(106.000000, 23.000000)">
                    <path d="M14,1 C13.9267016,1.81481481 13.7068063,2.62962963 13.4136126,3.44444444 L8.79581152,16.9259259 L5.13089005,17 L0.659685864,3.44444444 C0.293193717,2.62962963 0.146596859,1.81481481 0,1 L3.22513089,1 L6.0104712,9.88888889 L6.96335079,13.4444444 L7.10994764,13.4444444 L10.8481675,1 L14,1 Z" id="Shape"></path>
                    <polygon id="Shape" points="28 1 27.8656716 3.60465116 21.8208955 3.60465116 21.8208955 7.62325581 26.5895522 7.62325581 26.5895522 10.1534884 21.8208955 10.1534884 21.8208955 14.3953488 27.8656716 14.3953488 28 17 19 17 19 1"></polygon>
                    <polygon id="Shape" points="45 1 45 17 41.7309942 17 41.7309942 10.1534884 35.2690058 10.1534884 35.2690058 17 32 17 32 1 35.2690058 1 35.2690058 7.54883721 41.7309942 7.54883721 41.7309942 1"></polygon>
                    <polygon id="Shape" points="54 1 54 17 51 17 51 1"></polygon>
                    <path d="M64.9264804,0 C66.3522122,0 67.7779441,0.380951382 69,1.21904442 L67.9816201,3.65713327 C67.0990242,3.12380134 66.0806443,2.81904023 65.0622643,2.81904023 C64.1117764,2.74284995 63.0933965,3.19999161 62.4144766,3.96189438 C61.4639887,5.25712908 60.9887447,6.93331516 61.0566367,8.60950124 C61.0566367,11.4285415 62.0750166,14.1713914 65.1980483,14.1713914 C66.2843202,14.1713914 67.3027001,13.9428206 68.3210801,13.4856789 L69,15.9237678 C67.6421601,16.6856706 66.1485363,17.0666219 64.6549124,16.9904317 C60.3777168,16.9904317 58.001497,13.5618692 58.001497,8.83807207 C57.933605,4.34284576 60.1740408,0 64.9264804,0 Z" id="Shape"></path>
                    <path d="M86,1 L86,10.2785388 C86,14.2968037 84.3231707,17 80.2987805,17 C76.8780488,17 75,14.8082192 75,10.7899543 L75,1 L77.8841463,1 L77.8841463,10.4977169 C77.8841463,13.1278539 78.554878,14.4429224 80.5670732,14.4429224 C81.2378049,14.4429224 81.8414634,14.1506849 82.3109756,13.7123288 C82.9817073,12.9086758 83.25,11.8858447 83.1829268,10.8630137 L83.1829268,1 L86,1 Z" id="Shape"></path>
                    <polygon id="Shape" points="95.0714286 1 95.0714286 14.3953488 100.857143 14.3953488 101 17 92 17 92 1"></polygon>
                    <path d="M115,1 L115,10.2785388 C115,14.2968037 113.323171,17 109.29878,17 C105.878049,17 104,14.8082192 104,10.7899543 L104,1 L106.884146,1 L106.884146,10.4977169 C106.884146,13.1278539 107.554878,14.4429224 109.567073,14.4429224 C110.237805,14.4429224 110.841463,14.1506849 111.310976,13.7123288 C111.914634,12.9086758 112.25,11.8858447 112.182927,10.8630137 L112.182927,1 L115,1 Z" id="Shape"></path>
                    <path d="M137.097561,1 L138.780488,15.0651163 C138.853659,15.7348837 138.926829,16.3302326 139,17 L136.073171,17 L135.04878,7.84651163 L134.756098,4.64651163 L134.682927,4.64651163 L131.756098,17 L128.02439,17 L125.756098,7.84651163 L125.097561,4.64651163 L125.02439,4.64651163 L123.780488,17 L121,17 C121.073171,16.255814 121.146341,15.5116279 121.219512,14.8418605 L122.829268,1 L127.146341,1 L129.487805,10.3023256 L130.073171,13.2790698 L130.219512,13.2790698 L133,1 L137.097561,1 Z" id="Shape"></path>
                    <path d="M145.528461,14.0046397 C146.262123,13.9435099 146.934646,14.4936781 146.995784,15.2272357 C146.995784,15.2883655 146.995784,15.3494953 146.995784,15.4106251 C147.056923,16.2053126 146.445538,16.9388702 145.650738,17 C145.5896,17 145.528461,17 145.467323,17 C144.672523,17 144,16.3275722 144,15.4717549 C144.061138,14.6770675 144.733661,14.0046397 145.528461,14.0046397 L145.528461,14.0046397 Z" id="Shape"></path>
                </g>
            </g>
        </g>
    </g>
</svg>