<?xml version="1.0" encoding="UTF-8"?>
<svg width="20px" height="20px" viewBox="0 0 20 20" version="1.1" xmlns="http://www.w3.org/2000/svg" xmlns:xlink="http://www.w3.org/1999/xlink">
    <!-- Generator: Sketch 53.2 (72643) - https://sketchapp.com -->
    <title>Shape</title>
    <desc>Created with Sketch.</desc>
    <g id="Page-1" stroke="none" stroke-width="1" fill="none" fill-rule="evenodd">
        <g id="homepage_dropdown" transform="translate(-1175.000000, -21.000000)" fill="#000000" fill-rule="nonzero">
            <g id="top_bar" transform="translate(-6.000000, 0.000000)">
                <g id="Group-3" transform="translate(1181.000000, 21.000000)">
                    <g id="Group-2">
                        <g id="user">
                            <path d="M16.5355078,11.3681641 L15.7117578,11.1328125 C16.8671094,9.52695312 17.03125,7.90210938 17.03125,7.03125 C17.03125,3.15035156 13.8860937,0 10,0 C6.11910156,0 2.96875,3.14515625 2.96875,7.03125 C2.96875,7.90230469 3.13273438,9.52671875 4.28824219,11.1328125 L3.46449219,11.3681641 C0.83125,12.1205078 0,14.5152344 0,15.9611328 L0,16.9642969 C0,18.6382031 1.36179688,20 3.03570312,20 L16.9642578,20 C18.6382031,20 20,18.6382031 20,16.9642969 L20,15.9611328 C20,14.5452344 19.1904297,12.1267188 16.5355078,11.3681641 Z M10,1.875 C12.8477344,1.875 15.15625,4.18355469 15.15625,7.03125 C15.15625,9.87894531 12.8477344,12.1875 10,12.1875 C7.15226563,12.1875 4.84375,9.87894531 4.84375,7.03125 C4.84375,4.18355469 7.15226563,1.875 10,1.875 Z M18.125,16.9642969 C18.125,17.6053125 17.6053125,18.125 16.9642969,18.125 L3.03570312,18.125 C2.3946875,18.125 1.875,17.6053125 1.875,16.9642969 L1.875,15.9611328 C1.875,14.6655469 2.73386719,13.5269141 3.97960937,13.1710156 L5.78050781,12.6564844 C6.35480469,13.0882031 7.82917969,14.0625 10,14.0625 C12.1708203,14.0625 13.6451953,13.0882031 14.2194922,12.6564844 L16.0203906,13.1710156 C17.2661328,13.5269531 18.125,14.6655469 18.125,15.9611328 L18.125,16.9642969 Z" id="Shape"></path>
                        </g>
                    </g>
                </g>
            </g>
        </g>
    </g>
</svg>