<?xml version="1.0" encoding="UTF-8"?>
<svg width="23px" height="20px" viewBox="0 0 23 20" version="1.1" xmlns="http://www.w3.org/2000/svg" xmlns:xlink="http://www.w3.org/1999/xlink">
    <!-- Generator: Sketch 53.2 (72643) - https://sketchapp.com -->
    <title>Group 8</title>
    <desc>Created with Sketch.</desc>
    <g id="Page-1" stroke="none" stroke-width="1" fill="none" fill-rule="evenodd">
        <g id="homepage_dropdown" transform="translate(-1102.000000, -21.000000)">
            <g id="top_bar" transform="translate(-6.000000, 0.000000)">
                <g id="Group-8" transform="translate(1108.000000, 21.000000)">
                    <g id="shopping-cart">
                        <path d="M21.0545453,12.1063636 L22.78506,3.83747874 C22.9202118,3.21990616 22.7171387,3.1581818 22.1072726,3.1581818 L6.49944417,3.1581818 L6.10580529,1.5790909 C6.01536089,1.11979751 5.71510597,0.526363633 5.26363633,0.526363633 L0.950379027,0.526363633 C0.42549261,0.526363633 0,0.441857597 0,0.986931812 L0,1.64488635 C0,2.18996057 0.42549261,2.10545453 0.950379027,2.10545453 L3.89092726,2.10545453 L6.49944417,16.8436363 L8.94818176,16.8436363 L17.3699999,16.8436363 L20.3000488,16.8436363 L20.5281817,15.790909 C20.5281817,15.2645454 20.0853206,15.2645454 19.4754544,15.2645454 L8.42181813,15.2645454 L7.89545449,12.6327272 L19.9746308,12.6327272 C20.4183786,12.6327272 20.9562207,12.5557054 21.0545453,12.1063636 Z" id="Shape" fill="#000000" fill-rule="nonzero"></path>
                        <path d="M6.5269219,5.78999996 C6.50221311,5.50018617 6.31636359,4.7372727 7.36909086,4.7372727 C8.42181813,4.7372727 19.012451,4.71117282 19.4754544,4.7372727 C20.1847488,4.7772562 20.5281817,5.26363633 20.5281817,5.78999996 C20.5281817,6.31636359 19.5727246,10.2354621 19.4754544,10.5272727 C19.3781842,10.8190833 19.0740901,11.0536363 18.4227272,11.0536363 C17.9958251,11.0536363 8.22668063,11.0536363 7.89545449,11.0536363 C7.67463707,11.0536363 7.49918252,10.8781817 7.36909086,10.5272727 C6.82411741,7.56230005 6.54339442,5.98320916 6.5269219,5.78999996 Z" id="Path-3" fill="#FFFFFF"></path>
                    </g>
                    <circle id="Oval-3" fill="#000000" cx="6.84272723" cy="18.2121688" r="1.5790909"></circle>
                    <circle id="Oval-3" fill="#000000" cx="20.0018181" cy="18.2121688" r="1.5790909"></circle>
                </g>
            </g>
        </g>
    </g>
</svg>