<?xml version="1.0" encoding="UTF-8"?>
<svg width="25px" height="32px" viewBox="0 0 25 32" version="1.1" xmlns="http://www.w3.org/2000/svg" xmlns:xlink="http://www.w3.org/1999/xlink">
    <!-- Generator: Sketch 53.2 (72643) - https://sketchapp.com -->
    <title>Path 7</title>
    <desc>Created with Sketch.</desc>
    <g id="Page-1" stroke="none" stroke-width="1" fill="none" fill-rule="evenodd">
        <g id="homepage_dropdown" transform="translate(-100.000000, -568.000000)" fill="#D0021B">
            <path d="M124.959126,568 C122.765892,572.826599 121.825403,576.382154 122.13766,578.666667 C122.850247,583.880059 125.348132,586.605943 124.959126,588 C123.867539,591.911851 120.829037,595.911851 115.843619,600 C117.260461,596.622222 117.53481,594.488889 116.666667,593.6 C116.666667,592.266667 114.287077,594.666667 111.682646,594.666667 C109.247767,594.666667 109.247767,592.177778 111.682646,587.2 C108.485919,587.025499 106.400335,588.181055 105.425897,590.666667 C104.933435,591.922846 104.933435,594.589512 105.425897,598.666667 C101.085179,594.222222 99.3488924,589.333333 100.217036,584 C100.217036,582.584514 102.04314,578.190253 112.5,572.266667 C114.28428,571.25591 118.437322,569.833688 124.959126,568 Z" id="Path-7"></path>
        </g>
    </g>
</svg>