<?xml version="1.0" encoding="UTF-8"?>
<svg width="82px" height="82px" viewBox="0 0 82 82" version="1.1" xmlns="http://www.w3.org/2000/svg" xmlns:xlink="http://www.w3.org/1999/xlink">
    <!-- Generator: Sketch 53.2 (72643) - https://sketchapp.com -->
    <title>Group 24</title>
    <desc>Created with Sketch.</desc>
    <g id="Page-1" stroke="none" stroke-width="1" fill="none" fill-rule="evenodd">
        <g id="homepage_dropdown" transform="translate(-103.000000, -1220.000000)">
            <g id="Group-7" transform="translate(104.000000, 1221.000000)">
                <g id="Group-24">
                    <path d="M80,40.000418 C80,17.9084639 62.0924218,0 40.0010449,0 C17.909668,0 0,17.9084639 0,40.000418 C0,62.091954 17.909668,80 40.0010449,80 C62.0924218,80 80,62.091954 80,40.000418" id="Fill-9" fill="#FFFFFE"></path>
                    <path d="M80,40.000418 C80,17.9084639 62.0924218,0 40.0010449,0 C17.909668,0 0,17.9084639 0,40.000418 C0,62.091954 17.909668,80 40.0010449,80 C62.0924218,80 80,62.091954 80,40.000418 Z" id="Stroke-10" stroke="#1B1A18" stroke-width="2" stroke-linecap="round" stroke-linejoin="round"></path>
                    <path d="M79.1011236,40.8990857 C79.1011236,19.3034003 61.5951512,1.79775281 40.0008373,1.79775281 C18.4052675,1.79775281 0.898876404,19.3034003 0.898876404,40.8990857 C0.898876404,62.4935152 18.4052675,80 40.0008373,80 C61.5951512,80 79.1011236,62.4935152 79.1011236,40.8990857" id="Fill-12" fill="#0A0B09"></path>
                    <path d="M20.4998882,19.5956351 C20.2224227,19.9479017 19.9457556,20.2993576 19.6690886,20.6504081 C18.9077551,21.616405 18.1448247,22.582402 17.3834913,23.5483989 C17.3798982,23.5520472 17.3595374,23.5848822 17.3543474,23.5804231 C17.3152228,23.5488042 17.2756989,23.5171854 17.2365743,23.4851611 C17.0289742,23.3165272 16.822971,23.148704 16.6153709,22.98007 C16.256063,22.6877982 15.8967552,22.3955263 15.5378465,22.1040652 C16.2285161,21.2280605 16.9191857,20.3516503 17.6098552,19.4752402 C17.9464069,19.0487909 18.2829586,18.6215308 18.6191111,18.1950815 C18.8602466,17.889027 19.1644606,17.6721541 19.56449,17.6595876 C20.0443657,17.6433728 20.4627597,17.9283479 20.6667667,18.3596617 C20.8372384,18.7788144 20.7797491,19.2405309 20.4998882,19.5956351 Z M14.0215673,20.8713348 C13.5832117,20.5150145 13.1444569,20.1582888 12.7065005,19.8023739 C12.5388235,19.6661695 12.3723442,19.5299652 12.2046672,19.3941662 C12.2002757,19.3901125 12.3763365,19.1708073 12.3891119,19.156214 C13.2055392,18.1204934 14.022765,17.083962 14.8387931,16.0482415 C15.0543778,15.7754274 15.2472064,15.4839663 15.5777696,15.3449244 C16.0296991,15.1560219 16.560277,15.2772276 16.8880457,15.6428714 C17.1523366,15.9396023 17.2397681,16.3429455 17.1547319,16.7288579 C17.0573196,17.0718009 16.8181802,17.3243465 16.6029947,17.5967552 C16.1734222,18.1415726 15.7430513,18.6876061 15.3134787,19.2328289 C14.8827085,19.7792678 14.4519383,20.3257067 14.0215673,20.8713348 Z M23.3547888,17.7710644 C23.2122634,16.7600713 22.6126185,15.9104156 21.6919918,15.4851824 C20.7689699,15.0595438 19.695837,15.219665 18.8814059,15.804614 C18.8155328,15.8528531 18.7540512,15.9104156 18.6909727,15.9618976 C18.8255135,15.4941006 18.8670335,15.0222498 18.752055,14.542697 C18.6406696,14.0757106 18.3987356,13.6443968 18.0593893,13.3087504 C17.369119,12.6244857 16.3215369,12.3995053 15.4164803,12.7432591 C14.9905009,12.9045964 14.6112315,13.1822749 14.3265798,13.5430543 C14.1652905,13.7477662 14.0036019,13.9528835 13.8419134,14.1588115 C12.9963422,15.2302046 12.152368,16.3011924 11.3079945,17.3729909 C10.5821926,18.2923703 9.85718914,19.2117497 9.13218571,20.1315344 C9.084278,20.1923399 9.03716874,20.2531454 8.9888618,20.3139509 C8.98526872,20.3171939 9.08188261,20.391782 9.08866954,20.3970518 C9.37012737,20.6264913 9.6515852,20.8547146 9.9326438,21.0837487 C10.9969935,21.9488085 12.0613433,22.8138683 13.1260923,23.6793334 C14.1780659,24.5362858 15.2328341,25.3928328 16.2872031,26.2497852 C16.5558855,26.4678743 16.8237695,26.6859634 17.0936496,26.9044579 C17.1044288,26.9141867 17.1671081,26.9778298 17.1782866,26.9644526 C17.2313843,26.8959451 17.284482,26.8286536 17.3375797,26.7613622 C18.0609862,25.843199 18.7843927,24.9266572 19.5074,24.0093047 C20.3745297,22.9103464 21.2408609,21.8109827 22.1079905,20.711619 C22.5555284,20.1445062 23.0497764,19.6094177 23.2625665,18.8979932 C23.3715565,18.5315386 23.3895219,18.1492746 23.3547888,17.7710644 L23.3547888,17.7710644 Z" id="Fill-13" fill="#FFFFFE"></path>
                    <path d="M63.8202247,39.5505618 C63.8202247,26.1463234 52.9542478,15.2808989 39.5511855,15.2808989 C26.1472916,15.2808989 15.2808989,26.1463234 15.2808989,39.5505618 C15.2808989,52.9543844 26.1472916,63.8202247 39.5511855,63.8202247 C52.9542478,63.8202247 63.8202247,52.9543844 63.8202247,39.5505618" id="Fill-14" fill="#FFFFFE"></path>
                    <path d="M39.5505618,17.0786517 C27.2830913,17.3974079 17.3966026,27.2837182 17.0786517,39.5505618 L39.5505618,39.5505618 L39.5505618,17.0786517" id="Fill-15" fill="#008FC5"></path>
                    <path d="M40.4494382,62.9213483 C52.7178294,62.6017983 62.6022096,52.7168343 62.9213483,40.4494382 L40.4494382,40.4494382 L40.4494382,62.9213483" id="Fill-16" fill="#008FC5"></path>
                    <polyline id="Fill-17" fill="#FFFFFE" points="65.9049682 14.4975604 63.9321012 12.5842697 57.5280899 21.3678787 59.5001458 23.2798992 66.52339 19.9169277 61.8432548 26.3354909 63.2001331 28.7640449 72.8089888 24.1596996 71.453327 21.7319924 65.9078068 24.3883292 69.8498911 18.9825103 68.1243928 16.7322026 62.2094416 19.5650922 65.9049682 14.4975604"></polyline>
                    <polyline id="Fill-18" fill="#FFFFFE" points="36.3918253 6.16383705 38.9784223 13.0982527 41.0215777 13.0982527 43.6081747 6.16383705 43.8811554 13.0982527 46.741573 13.4831461 46.332522 3.08231451 42.6556821 2.69662921 40.00063 10.0163342 37.3434779 2.69662921 33.6662181 3.08231451 33.258427 13.4831461 36.1192646 13.0982527 36.3918253 6.16383705"></polyline>
                </g>
            </g>
        </g>
    </g>
</svg>