<?xml version="1.0" encoding="UTF-8"?>
<svg width="160px" height="61px" viewBox="0 0 160 61" version="1.1" xmlns="http://www.w3.org/2000/svg" xmlns:xlink="http://www.w3.org/1999/xlink">
    <!-- Generator: Sketch 53.2 (72643) - https://sketchapp.com -->
    <title>Group 25</title>
    <desc>Created with Sketch.</desc>
    <g id="Page-1" stroke="none" stroke-width="1" fill="none" fill-rule="evenodd">
        <g id="homepage_dropdown" transform="translate(-293.000000, -1241.000000)">
            <g id="Group-7" transform="translate(104.000000, 1221.000000)">
                <g id="Group-25" transform="translate(189.000000, 20.000000)">
                    <path d="M80.2987234,60.2807083 C124.251064,60.2807083 159.884255,46.8886667 159.884255,30.3271667 C159.884255,13.7665139 124.251064,0.322791667 80.2987234,0.322791667 C36.2953191,0.322791667 0.66212766,13.7665139 0.66212766,30.3271667 C0.66212766,46.8886667 36.2953191,60.2807083 80.2987234,60.2807083" id="Fill-76" fill="#325688"></path>
                    <path d="M80.2987234,57.2137639 C38.092766,57.2137639 3.79404255,45.2526806 3.79404255,30.3271667 C3.79404255,15.4524861 38.092766,3.33890278 80.2987234,3.33890278 C122.60766,3.33890278 156.855319,15.4524861 156.855319,30.3271667 C156.855319,45.2526806 122.60766,57.2137639 80.2987234,57.2137639" id="Fill-77" fill="#FFFFFE"></path>
                    <path d="M80.2987234,55.1185833 C121.221277,55.1185833 154.441702,44.0259028 154.441702,30.3271667 C154.441702,16.6801111 121.221277,5.58743056 80.2987234,5.58743056 C39.3251064,5.58743056 6.20680851,16.6801111 6.20680851,30.3271667 C6.20680851,44.0259028 39.3251064,55.1185833 80.2987234,55.1185833" id="Fill-78" fill="#325688"></path>
                    <path d="M99.7080851,35.2859583 C103.198298,32.0139861 105.149787,28.5895139 110.181277,28.6411944 C113.211064,28.6920278 113.981277,31.0939028 114.495319,32.1165 L121.118298,20.9729861 L125.175319,20.9729861 L114.186383,40.3455694 C113.981277,40.7547778 113.468085,41.5215139 113.519149,42.1349028 C113.622128,43.1058194 114.854468,42.8499583 114.39234,42.8499583 C116.6,42.7482917 120.65617,38.5570833 121.631489,37.5344861 C121.837447,37.278625 122.197447,36.8185833 122.402553,36.8185833 C122.60766,36.8185833 123.017872,37.0227639 123.017872,37.3303056 C123.017872,37.5344861 122.555745,38.3012222 122.197447,38.7612639 C120.142979,41.3173333 116.754043,45.2526806 112.90383,45.3551944 C111.003404,45.3551944 110.284255,44.5884583 110.028085,43.1058194 C109.154894,43.8725556 106.177021,45.2018472 103.148085,45.2018472 C100.63234,45.1510139 99.6051064,43.668375 99.0910638,42.4924306 C98.6297872,41.5215139 98.4238298,40.0905556 98.7838298,38.65875 C97.3965957,39.3746528 96.1131915,39.4771667 94.2646809,39.4254861 C92.1080851,39.3746528 90.773617,38.4037361 90.106383,35.8985 C87.6417021,40.39725 87.5387234,40.54975 85.0229787,45.2526806 L80.6578723,45.2526806 L86.2544681,35.7968333 C86.973617,34.518375 87.333617,33.4957778 87.5897872,32.4231944 C87.7438298,31.8098056 87.2817021,31.24725 86.6144681,31.1964167 C85.8953191,31.1964167 84.7157447,31.9114722 83.5846809,32.98575 C83.5846809,32.98575 80.7089362,36.0518472 78.6042553,39.1704722 C76.6017021,42.1349028 73.1617021,45.5085417 69.413617,45.5085417 C66.6919149,45.5085417 64.227234,44.0259028 63.7140426,41.1639861 C63.7140426,41.1639861 63.4578723,41.8282083 61.0442553,43.2083333 C60.8391489,43.31 60.3251064,43.6175417 60.1719149,43.5150278 C59.7089362,43.1058194 59.452766,42.5949444 59.4008511,42.2374167 C59.5548936,42.28825 59.8629787,42.0323889 60.8391489,41.2656528 C62.7387234,39.8346944 63.1497872,38.7104306 63.1497872,38.7104306 C63.6119149,37.7386667 64.4340426,36.2051944 64.9982979,35.1317639 C66.5387234,32.0656667 69.2076596,28.9470417 73.572766,28.7945417 C74.2910638,28.7945417 74.4970213,29.1012361 74.6510638,29.35625 C75.0612766,29.6629444 74.9080851,30.2763333 74.9080851,30.2763333 C71.826383,30.736375 69.7225532,32.5257083 68.4382979,34.2633611 C67.6680851,35.387625 66.8459574,37.2286389 66.6919149,38.5570833 C66.3838298,40.8572917 67.4629787,42.3899167 69.0544681,42.7482917 C72.0323404,43.2083333 74.4970213,41.0614722 76.4476596,37.7386667 C76.9617021,36.8702639 77.3217021,34.6208889 77.3217021,33.3941111 C77.3217021,32.1673333 76.652766,30.8897222 76.1404255,30.3788472 C76.1404255,29.5095972 76.7046809,28.9470417 77.3719149,28.9470417 C77.5770213,28.9470417 77.7829787,28.9470417 77.9880851,29.1520694 C79.0153191,30.1738194 79.5795745,32.1165 79.5795745,33.5982917 C79.5795745,34.1100139 79.5795745,34.6208889 79.4774468,35.1317639 C81.6331915,32.5257083 84.3548936,29.1520694 86.4595745,28.487 C86.8723404,28.2828194 87.2817021,28.2828194 87.692766,28.2828194 C91.5438298,28.1811528 91.0297872,31.6556111 91.0297872,31.6556111 C93.0842553,29.3045694 94.5217021,28.4361667 96.4204255,28.5386806 C98.4748936,28.6411944 99.1940426,30.0721528 99.1940426,31.1964167 C99.1429787,32.5257083 98.1668085,34.0583333 96.4731915,34.1100139 C94.9838298,34.1100139 94.1114894,33.3941111 93.6485106,32.0656667 C92.6731915,32.4231944 92.2119149,33.0874167 92.0059574,34.4167083 C91.6978723,36.1026806 92.9804255,37.4328194 94.6238298,37.4328194 C97.4476596,37.4328194 98.6817021,36.2051944 99.7080851,35.2859583" id="Fill-79" fill="#FFFFFE"></path>
                    <path d="M102.788085,13.2556389 C102.788085,14.8899306 97.0374468,18.0085556 92.16,18.0085556 C84.5608511,18.0085556 76.652766,14.3799028 73.0085106,13.5614861 C69.0544681,12.6414028 65.4604255,11.8755139 62.6357447,11.8755139 C52.7259574,11.8755139 48.3106383,16.1184028 48.5157447,20.0020694 C48.6187234,21.5872222 49.9021277,22.6098194 51.8017021,22.2514444 C53.8561702,21.8930694 56.7310638,19.9512361 57.4502128,18.2644167 C57.6042553,17.9068889 58.0153191,17.8552083 58.1693617,17.9577222 C58.4765957,18.2127361 58.3744681,18.5711111 58.3744681,18.5711111 C58.1174468,20.564625 55.0365957,26.0842778 49.6970213,26.0842778 C46.7191489,26.0842778 44.7165957,23.3240278 44.7676596,20.6154583 C44.8195745,15.5558472 50.0051064,10.4437083 62.7897872,10.4437083 C65.2034043,10.4437083 67.9242553,10.6478889 70.9038298,11.1587639 C74.3429787,11.773 82.9174468,13.2039583 89.9004255,13.3064722 C92.4680851,13.3064722 95.7540426,13.4081389 98.4238298,12.9989306 C101.24766,12.5388889 100.63234,12.4372222 101.761702,12.4372222 C102.788085,12.4372222 102.788085,12.8455833 102.788085,13.2556389" id="Fill-80" fill="#FFFFFE"></path>
                    <path d="M110.388085,31.0430694 C108.589787,30.8388889 106.331064,32.3715139 104.482553,34.6208889 C103.558298,35.746 102.582979,37.8928611 102.428936,39.1704722 C102.22383,40.4480833 102.582979,41.7256944 103.045106,42.0840694 C103.507234,42.4415972 105.560851,43.5150278 108.744681,40.2947361 C110.541277,38.5054028 112.286809,35.5926528 112.286809,35.5926528 L111.722553,35.4384583 C112.800851,33.4457917 112.594894,31.2989306 110.388085,31.0430694" id="Fill-81" fill="#325688"></path>
                    <path d="M72.853617,25.0116944 C72.853617,25.5734028 73.6238298,26.0334444 74.2910638,26.0842778 C74.1370213,26.6468333 74.1889362,26.9026944 73.9319149,26.8518611 C72.3914894,26.8518611 71.7753191,25.3700694 71.7753191,25.3700694 C69.7225532,25.72675 67.72,25.9826111 63.6629787,26.3918194 C53.4451064,42.8499583 50.2612766,45.5602222 43.9974468,45.5602222 C39.5302128,45.5602222 35.5770213,42.6457778 35.4740426,37.4328194 C35.4229787,34.2633611 37.9897872,30.3788472 42.7651064,29.2029028 C43.3302128,29.2029028 43.5353191,29.4070833 43.5353191,29.7137778 C43.5353191,29.9188056 43.3302128,30.1738194 42.8680851,30.3788472 C41.4817021,30.8897222 39.0680851,33.5982917 39.0680851,36.1026806 C39.0680851,37.9945278 40.2493617,40.0905556 42.2519149,40.54975 C42.8170213,40.7039444 43.3302128,40.6531111 43.8434043,40.6531111 C48.8238298,40.6531111 54.4204255,35.0809306 60.4791489,26.596 C59.5038298,26.6468333 55.3446809,27.106875 54.3182979,28.2828194 C53.8561702,28.6411944 53.5480851,28.4361667 53.4451064,28.0269583 C53.4451064,27.9244444 53.5991489,27.5669167 53.7540426,27.3627361 C55.3965957,25.5225694 60.3251064,25.1133611 61.506383,24.9600139 C66.1276596,17.9068889 72.0834043,13.5098056 73.3157447,13.5614861 C73.5208511,13.5614861 73.9838298,13.8681806 73.7778723,14.3799028 C73.7268085,14.4815694 73.212766,15.044125 73.0085106,15.1983194 C71.9812766,16.1184028 68.4893617,18.3669306 64.6902128,24.7558333 C67.7702128,24.6024861 71.3651064,23.9899444 71.3651064,23.9899444 C71.3651064,23.9899444 71.1591489,23.3240278 71.1591489,22.7614722 C71.3131915,20.564625 72.5965957,19.2353333 74.24,19.4911944 C75.1651064,19.6445417 75.7804255,20.4112778 75.7804255,21.2296944 C75.7804255,22.0980972 75.1131915,23.3757083 74.4451064,23.9899444 C73.9838298,24.346625 73.4697872,24.7041528 72.853617,25.0116944" id="Fill-82" fill="#FFFFFE"></path>
                    <path d="M72.5965957,23.8874306 C72.5965957,23.8874306 73.1106383,23.9382639 73.8808511,23.0698611 C74.1889362,22.7614722 74.7021277,21.8413889 74.5991489,21.2296944 C74.5480851,20.9221528 74.3940426,20.564625 74.0357447,20.6154583 C73.2646809,20.7696528 72.8025532,21.1271806 72.5965957,21.8930694 C72.3404255,22.7114861 72.4434043,23.2731944 72.5965957,23.8874306" id="Fill-83" fill="#325688"></path>
                </g>
            </g>
        </g>
    </g>
</svg>