<?xml version="1.0" encoding="UTF-8"?>
<svg width="63px" height="80px" viewBox="0 0 63 80" version="1.1" xmlns="http://www.w3.org/2000/svg" xmlns:xlink="http://www.w3.org/1999/xlink">
    <!-- Generator: Sketch 53.2 (72643) - https://sketchapp.com -->
    <title>Fill 74</title>
    <desc>Created with Sketch.</desc>
    <g id="Page-1" stroke="none" stroke-width="1" fill="none" fill-rule="evenodd">
        <g id="homepage_dropdown" transform="translate(-1273.000000, -1228.000000)" fill="#131514">
            <g id="Group-7" transform="translate(104.000000, 1221.000000)">
                <path d="M1200.60775,63.9465371 L1210.08145,46.8971254 L1200.62907,29.880488 L1191.14493,46.8971254 L1200.60775,63.9465371 Z M1190.54018,46.8971254 L1200.60775,65.0517559 L1210.68621,46.8971254 L1214.66179,46.8971254 L1231.38391,46.8862007 L1209.58468,7.54168468 L1191.45797,7.54168468 L1169.63696,46.8862007 L1186.87764,46.8971254 L1199.33291,68.7584268 L1193.11117,82.8813756 L1194.10473,82.8813756 C1194.83923,81.6022714 1214.66179,46.8971254 1214.66179,46.8971254 L1202.00145,24.9270319 C1204.05389,20.2557981 1206.20341,15.5950338 1208.18054,10.8801011 L1207.2192,10.8801011 L1186.89941,46.8971254 L1190.54018,46.8971254 Z M1169,46.8862007 L1191.03696,7 L1210.00569,7 L1232,46.8862007 L1209.75707,87 L1191.2638,87 L1169,46.8862007 L1169,46.8862007 Z" id="Fill-74"></path>
            </g>
        </g>
    </g>
</svg>