<?xml version="1.0" encoding="UTF-8"?>
<svg width="160px" height="24px" viewBox="0 0 160 24" version="1.1" xmlns="http://www.w3.org/2000/svg" xmlns:xlink="http://www.w3.org/1999/xlink">
    <!-- Generator: Sketch 53.2 (72643) - https://sketchapp.com -->
    <title>Group 27</title>
    <desc>Created with Sketch.</desc>
    <g id="Page-1" stroke="none" stroke-width="1" fill="none" fill-rule="evenodd">
        <g id="homepage_dropdown" transform="translate(-567.000000, -1256.000000)">
            <g id="Group-7" transform="translate(104.000000, 1221.000000)">
                <g id="Group-27" transform="translate(463.000000, 35.000000)">
                    <path d="M62.5075706,4.246 L66.6549153,4.246 L66.6549153,15.268 C66.6549153,16.284 67.1828249,16.694 68.0705085,16.694 L75.1376271,16.694 C76.0253107,16.694 76.5523164,16.284 76.5523164,15.268 L76.5523164,4.246 L80.700565,4.246 L80.700565,15.993 C80.700565,18.487 78.7679096,20.376 76.5523164,20.376 L66.6549153,20.376 C64.4492655,20.376 62.5075706,18.476 62.5075706,15.993 L62.5075706,4.246" id="Fill-74" fill="#131514"></path>
                    <path d="M42.840226,15.399 L46.9685876,15.399 C47.0372881,16.317 47.5254237,16.694 48.3444068,16.694 L55.9285876,16.694 C56.6309605,16.694 57.0223729,16.024 57.0223729,15.302 C57.0223729,14.329 56.3778531,13.823 55.5480226,13.823 L47.2813559,13.823 C44.5577401,13.823 42.7037288,12.354 42.7037288,9.18 C42.7037288,7.528 43.2894915,5.779 44.6164972,4.893 C45.4463277,4.332 46.460565,4.246 47.4178531,4.246 L57.1579661,4.246 C59.2668927,4.246 60.9645198,5.897 60.9455367,8.273 L60.9455367,9.126 L56.680678,9.126 C56.640904,8.392 56.2512994,7.916 55.5480226,7.916 L48.3543503,7.916 C47.6230508,7.916 47.0074576,8.327 47.0074576,9.223 C47.0074576,10.108 47.6320904,10.443 48.3444068,10.443 L57.1579661,10.443 C60.0081356,10.443 61.4824859,12.548 61.4824859,15.614 C61.4824859,18.552 60.2522034,20.376 57.499661,20.376 L46.9685876,20.376 C44.5676836,20.376 42.8691525,19.308 42.8501695,16.479 L42.840226,15.399" id="Fill-75" fill="#131514"></path>
                    <path d="M18.7218079,0.207 C23.319322,0.207 28.2485876,1.244 32.1717514,3.997 C34.72,5.8 37.0910734,8.532 37.0910734,12.095 C37.0910734,16.253 33.880226,19.274 30.8058757,21.046 C27.1457627,23.142 22.8221469,23.972 18.7218079,23.972 C14.1251977,23.972 9.20587571,22.946 5.28271186,20.183 C2.73536723,18.38 0.353446328,15.647 0.353446328,12.095 C0.353446328,7.916 3.55525424,4.904 6.63954802,3.133 C10.3087006,1.039 14.6232768,0.207 18.7218079,0.207" id="Fill-76" fill="#131514"></path>
                    <path d="M141.018757,4.246 L145.176949,4.246 L145.176949,15.268 C145.176949,16.284 145.703955,16.694 146.591638,16.694 L153.658757,16.694 C154.546441,16.694 155.073446,16.284 155.073446,15.268 L155.073446,4.246 L159.221695,4.246 L159.221695,15.993 C159.221695,18.476 157.28,20.376 155.073446,20.376 L145.176949,20.376 C142.961356,20.376 141.018757,18.487 141.018757,15.993 L141.018757,4.246" id="Fill-77" fill="#131514"></path>
                    <path d="M110.409944,8.327 L107.795706,13.704 L113.035932,13.704 L110.409944,8.327 Z M106.027571,17.19 L104.398644,20.376 L99.7911864,20.376 L107.707119,4.246 L113.123616,4.246 L121.039548,20.376 L116.432994,20.376 L114.80226,17.19 L106.027571,17.19 L106.027571,17.19 Z" id="Fill-78" fill="#131514"></path>
                    <path d="M86.5274576,10.573 L94.4135593,10.573 C95.1258757,10.573 95.5751412,10.022 95.5751412,9.255 C95.5751412,8.489 95.1367232,7.916 94.4135593,7.916 L86.5274576,7.916 L86.5274576,10.573 Z M86.5274576,16.694 L94.4135593,16.694 C95.1846328,16.694 95.8969492,16.229 95.8969492,15.302 C95.8969492,14.384 95.1755932,13.909 94.4135593,13.909 L86.5274576,13.909 L86.5274576,16.694 Z M82.2815819,4.246 L95.0671186,4.246 C97.8106215,4.246 99.840904,5.304 99.840904,8.705 C99.840904,10.173 99.3138983,11.458 98.1423729,12.181 C99.4305085,12.936 100.161808,14.341 100.161808,15.96 C100.161808,18.239 98.8447458,20.376 96.6291525,20.376 L82.2815819,20.376 L82.2815819,4.246 L82.2815819,4.246 Z" id="Fill-79" fill="#131514"></path>
                    <path d="M126.105311,12.009 L133.884746,12.009 C134.88904,12.009 135.562486,11.016 135.562486,9.968 C135.562486,8.629 134.664859,7.916 133.503277,7.916 L126.105311,7.916 L126.105311,12.009 Z M121.829605,4.246 L135.728814,4.246 C138.500339,4.246 139.838192,6.75 139.838192,9.547 C139.838192,11.361 139.242486,13.056 137.740113,13.919 C139.203616,14.708 139.877062,15.95 139.877062,17.765 L139.877062,20.376 L135.728814,20.376 L135.728814,17.765 C135.728814,16.229 134.95774,15.679 133.620791,15.679 L126.105311,15.679 L126.105311,20.376 L121.829605,20.376 L121.829605,4.246 L121.829605,4.246 Z" id="Fill-80" fill="#131514"></path>
                    <path d="M18.6838418,1.471 C14.4081356,1.471 9.80158192,2.356 6.09265537,4.829 C3.75954802,6.372 1.45627119,8.802 1.45627119,12.03 C1.45627119,15.819 4.57943503,18.476 7.37084746,19.999 C10.8266667,21.866 14.8673446,22.591 18.6838418,22.591 C22.9676836,22.591 27.5751412,21.704 31.2840678,19.231 C33.6072316,17.677 35.920452,15.259 35.920452,12.03 C35.920452,8.23 32.8063277,5.574 30.0049718,4.062 C26.5500565,2.194 22.5093785,1.471 18.6838418,1.471" id="Fill-81" fill="#FFFFFE"></path>
                    <polyline id="Fill-82" fill="#131514" points="2.54915254 9.407 9.58644068 8.079 11.7044068 2.993 13.8133333 8.079 20.8497175 9.407 13.8133333 10.746 11.7044068 15.841 9.58644068 10.746 2.54915254 9.407"></polyline>
                    <polyline id="Fill-83" fill="#131514" points="18.020339 13.282 21.1236158 12.679 22.0510734 10.378 22.9776271 12.679 26.0818079 13.282 22.9776271 13.876 22.0510734 16.177 21.1236158 13.876 18.020339 13.282"></polyline>
                    <polyline id="Fill-84" fill="#131514" points="24.4420339 7.15 27.5462147 6.556 28.4736723 4.246 29.400226 6.556 32.5044068 7.15 29.400226 7.754 28.4736723 10.055 27.5462147 7.754 24.4420339 7.15"></polyline>
                    <polyline id="Fill-85" fill="#131514" points="21.1236158 18.034 24.2178531 17.44 25.1444068 15.13 26.0818079 17.44 29.1859887 18.034 26.0818079 18.638 25.1444068 20.938 24.2178531 18.638 21.1236158 18.034"></polyline>
                    <polyline id="Fill-86" fill="#131514" points="11.5877966 18.864 14.6910734 18.271 15.6284746 15.96 16.5550282 18.271 19.660113 18.864 16.5550282 19.47 15.6284746 21.768 14.6910734 19.47 11.5877966 18.864"></polyline>
                    <polyline id="Fill-87" fill="#131514" points="27.1945763 13.186 30.2879096 12.581 31.2162712 10.281 32.1527684 12.581 35.2560452 13.186 32.1527684 13.78 31.2162712 16.079 30.2879096 13.78 27.1945763 13.186"></polyline>
                </g>
            </g>
        </g>
    </g>
</svg>