<?xml version="1.0" encoding="UTF-8"?>
<svg width="160px" height="27px" viewBox="0 0 160 27" version="1.1" xmlns="http://www.w3.org/2000/svg" xmlns:xlink="http://www.w3.org/1999/xlink">
    <!-- Generator: Sketch 53.2 (72643) - https://sketchapp.com -->
    <title>Group 29</title>
    <desc>Created with Sketch.</desc>
    <g id="Page-1" stroke="none" stroke-width="1" fill="none" fill-rule="evenodd">
        <g id="homepage_dropdown" transform="translate(-1004.000000, -1256.000000)" fill="#D6242C">
            <g id="Group-7" transform="translate(104.000000, 1221.000000)">
                <g id="Group-29" transform="translate(900.000000, 35.000000)">
                    <path d="M20.4624084,21.313125 C22.0749738,21.313125 23.3901571,17.9339063 23.4605236,13.6940625 L23.4689005,13.6974375 C22.4971728,13.7877188 21.4919372,13.8358125 20.4624084,13.8358125 C19.4328796,13.8358125 18.4284817,13.7877188 17.4559162,13.6974375 L17.4651309,13.6940625 C17.5346597,17.9339063 18.8498429,21.313125 20.4624084,21.313125 Z M20.4624084,10.4743125 C21.4224084,10.4743125 22.3547644,10.4329688 23.246911,10.3545 L23.2460733,10.3553438 C22.8020942,7.428375 21.7231414,5.362875 20.4624084,5.362875 C19.2016754,5.362875 18.1235602,7.428375 17.6787435,10.3553438 L17.6779058,10.3545 C18.5700524,10.4329688 19.5032461,10.4743125 20.4624084,10.4743125 Z M21.7591623,25.4078438 C30.7518325,24.9361875 37.8420942,19.6062188 37.8420942,13.1009063 C37.8420942,10.8902813 37.0228272,8.8155 35.5895288,7.02084375 L35.5719372,6.98625 C35.4638743,9.99084375 31.2318325,12.5322188 25.3721466,13.4595 L25.3746597,13.456125 C25.3780105,13.6527188 25.3805236,13.851 25.3805236,14.0509688 C25.3805236,19.4999063 23.8274346,24.0865313 21.7223037,25.4154375 L21.7591623,25.4078438 Z M20.4624084,2.2966875 C22.6043979,2.2966875 24.4263874,5.56959375 25.100733,10.135125 L25.1032461,10.128375 C29.2699476,9.4753125 32.187644,7.968375 32.187644,6.21421875 C32.187644,3.861 26.937801,1.95496875 20.4624084,1.95496875 C13.9870157,1.95496875 8.73801047,3.861 8.73801047,6.21421875 C8.73801047,7.968375 11.6548691,9.4753125 15.8215707,10.128375 L15.8240838,10.135125 C16.499267,5.56959375 18.3212565,2.2966875 20.4624084,2.2966875 Z M0.374450262,13.5759375 C0.374450262,6.29690625 9.36795812,0.394875 20.4624084,0.394875 C31.5568586,0.394875 40.5503665,6.29690625 40.5503665,13.5759375 C40.5503665,20.854125 31.5568586,26.757 20.4624084,26.757 C9.36795812,26.757 0.374450262,20.854125 0.374450262,13.5759375 Z M19.2033508,25.4154375 C17.0973822,24.0865313 15.5451309,19.4999063 15.5451309,14.0509688 C15.5451309,13.851 15.5468063,13.6527188 15.5509948,13.456125 L15.5535079,13.4595 C9.69465969,12.5322188 5.46094241,9.99084375 5.35287958,6.98625 L5.33528796,7.02084375 C3.90198953,8.8155 3.08356021,10.8902813 3.08356021,13.1009063 C3.08356021,19.6062188 10.1729843,24.9361875 19.1656545,25.4078438 L19.2033508,25.4154375 L19.2033508,25.4154375 Z" id="Fill-74"></path>
                    <path d="M112.878743,19.9555313 C115.963141,19.9555313 118.464503,17.0985937 118.464503,13.5759375 C118.464503,10.0524375 115.963141,7.1955 112.878743,7.1955 C109.795183,7.1955 107.29466,10.0524375 107.29466,13.5759375 C107.29466,17.0985937 109.795183,19.9555313 112.878743,19.9555313 Z M102.876649,13.5759375 C102.876649,8.01225 107.354974,3.5015625 112.878743,3.5015625 C118.403351,3.5015625 122.881675,8.01225 122.881675,13.5759375 C122.881675,19.139625 118.403351,23.6494687 112.878743,23.6494687 C107.354974,23.6494687 102.876649,19.139625 102.876649,13.5759375 L102.876649,13.5759375 Z" id="Fill-75"></path>
                    <polyline id="Fill-76" points="134.229948 7.69921875 134.229948 23.1921562 130.016335 23.1921562 130.016335 7.69921875 130.029738 7.69921875 124.136545 7.69921875 124.136545 4.19596875 140.108063 4.19596875 140.108063 7.69921875 134.229948 7.69921875"></polyline>
                    <path d="M149.068901,15.7123125 L151.720209,15.7123125 L151.718534,15.7131562 L149.086492,8.76065625 L149.049634,8.76065625 L146.416754,15.7131562 L146.415916,15.7123125 L149.068901,15.7123125 Z M145.206283,18.9185625 L145.202094,18.9219375 L143.586178,23.1921562 L138.664712,23.1921562 L146.445236,4.19596875 L151.690052,4.19596875 L159.471414,23.1921562 L154.54911,23.1921562 L152.932356,18.9219375 L152.928168,18.9185625 L145.206283,18.9185625 L145.206283,18.9185625 Z" id="Fill-77"></path>
                    <polyline id="Fill-78" points="56.5478534 7.69921875 56.5478534 23.1921562 52.3342408 23.1921562 52.3342408 7.69921875 52.3484817 7.69921875 46.4544503 7.69921875 46.4544503 4.19596875 62.4268063 4.19596875 62.4268063 7.69921875 56.5478534 7.69921875"></polyline>
                    <path d="M73.5078534,19.9555313 C76.5914136,19.9555313 79.0927749,17.0985937 79.0927749,13.5759375 C79.0927749,10.0524375 76.5914136,7.1955 73.5078534,7.1955 C70.4234555,7.1955 67.9229319,10.0524375 67.9229319,13.5759375 C67.9229319,17.0985937 70.4234555,19.9555313 73.5078534,19.9555313 Z M63.5049215,13.5759375 C63.5049215,8.01225 67.9832461,3.5015625 73.5078534,3.5015625 C79.031623,3.5015625 83.5099476,8.01225 83.5099476,13.5759375 C83.5099476,19.139625 79.031623,23.6494687 73.5078534,23.6494687 C67.9832461,23.6494687 63.5049215,19.139625 63.5049215,13.5759375 L63.5049215,13.5759375 Z" id="Fill-79"></path>
                    <polyline id="Fill-80" points="93.1937173 23.1921562 95.3298429 23.1921562 95.3298429 15.9789375 102.682304 4.19596875 97.7616754 4.19596875 93.1937173 12.180375 88.6257592 4.19596875 83.7034555 4.19596875 91.0567539 15.9789375 91.0567539 23.1921562 93.1937173 23.1921562"></polyline>
                </g>
            </g>
        </g>
    </g>
</svg>